<?xml version="1.0" encoding="UTF-8"?>
<svg xmlns="http://www.w3.org/2000/svg" xmlns:xlink="http://www.w3.org/1999/xlink" width="500" zoomAndPan="magnify" viewBox="0 0 375 374.999991" height="500" preserveAspectRatio="xMidYMid meet" version="1.0">
  <defs>
    <g></g>
    <clipPath id="9b1f56abbf">
      <path d="M 37.628906 44.644531 L 337.628906 44.644531 L 337.628906 344.644531 L 37.628906 344.644531 Z M 37.628906 44.644531 " clip-rule="nonzero"></path>
    </clipPath>
    <clipPath id="35ba4a5c07">
      <path d="M 187.628906 344.644531 C 147.578125 344.644531 109.871094 329.054688 81.574219 300.699219 C 53.214844 272.402344 37.628906 234.691406 37.628906 194.644531 C 37.628906 154.597656 53.214844 116.886719 81.574219 88.589844 C 109.871094 60.230469 147.578125 44.644531 187.628906 44.644531 C 227.675781 44.644531 265.386719 60.230469 293.683594 88.589844 C 322.039062 116.945312 337.628906 154.597656 337.628906 194.644531 C 337.628906 234.691406 322.039062 272.402344 293.683594 300.699219 C 265.386719 329.054688 227.675781 344.644531 187.628906 344.644531 Z M 187.628906 53.636719 C 149.976562 53.636719 114.546875 68.324219 87.925781 94.945312 C 61.308594 121.5625 46.621094 156.996094 46.621094 194.644531 C 46.621094 232.292969 61.308594 267.726562 87.925781 294.34375 C 114.546875 320.964844 149.976562 335.652344 187.628906 335.652344 C 225.277344 335.652344 260.710938 320.964844 287.328125 294.34375 C 313.945312 267.726562 328.636719 232.292969 328.636719 194.644531 C 328.636719 156.996094 313.945312 121.5625 287.328125 94.945312 C 260.710938 68.324219 225.277344 53.636719 187.628906 53.636719 Z M 187.628906 53.636719 " clip-rule="nonzero"></path>
    </clipPath>
    <clipPath id="7588fa5a89">
      <path d="M 152 96.25 L 252.96875 96.25 L 252.96875 161 L 152 161 Z M 152 96.25 " clip-rule="nonzero"></path>
    </clipPath>
    <clipPath id="f611dda3a1">
      <path d="M 157 144 L 188 144 L 188 173.5 L 157 173.5 Z M 157 144 " clip-rule="nonzero"></path>
    </clipPath>
    <clipPath id="f65d558ec3">
      <path d="M 212 144 L 242 144 L 242 173.5 L 212 173.5 Z M 212 144 " clip-rule="nonzero"></path>
    </clipPath>
    <clipPath id="8f90ead89d">
      <path d="M 201 96.25 L 242 96.25 L 242 130 L 201 130 Z M 201 96.25 " clip-rule="nonzero"></path>
    </clipPath>
    <clipPath id="a22be6922f">
      <path d="M 122.46875 128 L 155 128 L 155 133 L 122.46875 133 Z M 122.46875 128 " clip-rule="nonzero"></path>
    </clipPath>
  </defs>
  <g clip-path="url(#9b1f56abbf)">
    <g clip-path="url(#35ba4a5c07)">
      <path fill="#167544" d="M 37.628906 44.644531 L 337.628906 44.644531 L 337.628906 344.644531 L 37.628906 344.644531 Z M 37.628906 44.644531 " fill-opacity="1" fill-rule="nonzero"></path>
    </g>
  </g>
  <path fill="#167544" d="M 159.871094 160.773438 L 146.40625 160.773438 C 146.117188 160.773438 145.835938 160.71875 145.570312 160.605469 C 145.300781 160.496094 145.0625 160.335938 144.859375 160.132812 C 144.652344 159.925781 144.496094 159.691406 144.382812 159.421875 C 144.273438 159.152344 144.21875 158.875 144.21875 158.582031 C 144.21875 158.292969 144.273438 158.011719 144.382812 157.746094 C 144.496094 157.476562 144.652344 157.238281 144.859375 157.035156 C 145.0625 156.828125 145.300781 156.671875 145.570312 156.558594 C 145.835938 156.449219 146.117188 156.394531 146.40625 156.394531 L 159.871094 156.394531 C 160.160156 156.394531 160.4375 156.449219 160.707031 156.558594 C 160.976562 156.671875 161.210938 156.828125 161.417969 157.035156 C 161.625 157.238281 161.78125 157.476562 161.894531 157.746094 C 162.003906 158.011719 162.058594 158.292969 162.058594 158.582031 C 162.058594 158.875 162.003906 159.152344 161.894531 159.421875 C 161.78125 159.691406 161.625 159.925781 161.417969 160.132812 C 161.210938 160.335938 160.976562 160.496094 160.707031 160.605469 C 160.4375 160.71875 160.160156 160.773438 159.871094 160.773438 Z M 159.871094 160.773438 " fill-opacity="1" fill-rule="nonzero"></path>
  <path fill="#167544" d="M 214.492188 160.773438 L 185.085938 160.773438 C 184.792969 160.773438 184.515625 160.71875 184.246094 160.605469 C 183.980469 160.496094 183.742188 160.335938 183.535156 160.132812 C 183.332031 159.925781 183.171875 159.691406 183.0625 159.421875 C 182.949219 159.152344 182.894531 158.875 182.894531 158.582031 C 182.894531 158.292969 182.949219 158.011719 183.0625 157.746094 C 183.171875 157.476562 183.332031 157.238281 183.535156 157.035156 C 183.742188 156.828125 183.980469 156.671875 184.246094 156.558594 C 184.515625 156.449219 184.792969 156.394531 185.085938 156.394531 L 214.492188 156.394531 C 214.78125 156.394531 215.0625 156.449219 215.328125 156.558594 C 215.597656 156.671875 215.835938 156.828125 216.039062 157.035156 C 216.246094 157.238281 216.402344 157.476562 216.515625 157.746094 C 216.625 158.011719 216.683594 158.292969 216.683594 158.582031 C 216.683594 158.875 216.625 159.152344 216.515625 159.421875 C 216.402344 159.691406 216.246094 159.925781 216.039062 160.132812 C 215.835938 160.335938 215.597656 160.496094 215.328125 160.605469 C 215.0625 160.71875 214.78125 160.773438 214.492188 160.773438 Z M 214.492188 160.773438 " fill-opacity="1" fill-rule="nonzero"></path>
  <g clip-path="url(#7588fa5a89)">
    <path fill="#167544" d="M 250.21875 160.773438 L 239.679688 160.773438 C 239.386719 160.773438 239.109375 160.71875 238.839844 160.605469 C 238.570312 160.496094 238.335938 160.335938 238.128906 160.132812 C 237.925781 159.925781 237.765625 159.691406 237.65625 159.421875 C 237.542969 159.152344 237.488281 158.875 237.488281 158.582031 C 237.488281 158.292969 237.542969 158.011719 237.65625 157.746094 C 237.765625 157.476562 237.925781 157.238281 238.128906 157.035156 C 238.335938 156.828125 238.570312 156.671875 238.839844 156.558594 C 239.109375 156.449219 239.386719 156.394531 239.679688 156.394531 L 248.074219 156.394531 L 248.074219 139.425781 C 248.078125 138.3125 247.820312 137.261719 247.304688 136.277344 C 246.785156 135.289062 246.070312 134.480469 245.152344 133.847656 L 238.4375 129.308594 C 238.199219 129.140625 238 128.933594 237.839844 128.695312 L 221.894531 104.0625 C 221.5625 103.542969 221.171875 103.074219 220.722656 102.652344 C 220.269531 102.230469 219.773438 101.875 219.234375 101.578125 C 218.691406 101.285156 218.121094 101.0625 217.523438 100.910156 C 216.925781 100.761719 216.320312 100.6875 215.703125 100.691406 L 154.628906 100.691406 C 154.335938 100.691406 154.058594 100.632812 153.789062 100.523438 C 153.519531 100.414062 153.285156 100.253906 153.078125 100.046875 C 152.875 99.84375 152.714844 99.605469 152.605469 99.339844 C 152.492188 99.070312 152.4375 98.789062 152.4375 98.5 C 152.4375 98.210938 152.492188 97.929688 152.605469 97.660156 C 152.714844 97.394531 152.875 97.15625 153.078125 96.953125 C 153.285156 96.746094 153.519531 96.585938 153.789062 96.476562 C 154.058594 96.367188 154.335938 96.308594 154.628906 96.308594 L 215.703125 96.308594 C 216.6875 96.304688 217.652344 96.425781 218.605469 96.664062 C 219.558594 96.90625 220.464844 97.261719 221.328125 97.730469 C 222.191406 98.199219 222.980469 98.769531 223.699219 99.4375 C 224.417969 100.109375 225.042969 100.855469 225.574219 101.683594 L 241.269531 125.933594 L 247.546875 130.226562 C 248.300781 130.738281 248.980469 131.328125 249.589844 132.003906 C 250.199219 132.679688 250.714844 133.417969 251.144531 134.21875 C 251.570312 135.019531 251.894531 135.859375 252.117188 136.742188 C 252.339844 137.625 252.453125 138.519531 252.453125 139.425781 L 252.453125 158.582031 C 252.453125 158.878906 252.398438 159.160156 252.285156 159.429688 C 252.167969 159.703125 252.007812 159.941406 251.796875 160.148438 C 251.585938 160.351562 251.34375 160.511719 251.070312 160.621094 C 250.796875 160.726562 250.515625 160.777344 250.21875 160.773438 Z M 250.21875 160.773438 " fill-opacity="1" fill-rule="nonzero"></path>
  </g>
  <g clip-path="url(#f611dda3a1)">
    <path fill="#167544" d="M 172.46875 173.871094 C 171.496094 173.871094 170.535156 173.777344 169.582031 173.585938 C 168.628906 173.394531 167.703125 173.117188 166.804688 172.742188 C 165.90625 172.371094 165.054688 171.914062 164.246094 171.375 C 163.4375 170.835938 162.6875 170.222656 162 169.535156 C 161.3125 168.847656 160.699219 168.097656 160.160156 167.289062 C 159.621094 166.480469 159.164062 165.628906 158.792969 164.730469 C 158.417969 163.832031 158.140625 162.90625 157.949219 161.953125 C 157.757812 161 157.664062 160.035156 157.664062 159.066406 C 157.664062 158.09375 157.757812 157.128906 157.949219 156.175781 C 158.140625 155.222656 158.417969 154.296875 158.792969 153.398438 C 159.164062 152.5 159.621094 151.648438 160.160156 150.839844 C 160.699219 150.03125 161.3125 149.285156 162 148.597656 C 162.6875 147.910156 163.4375 147.292969 164.246094 146.753906 C 165.054688 146.214844 165.90625 145.757812 166.804688 145.386719 C 167.703125 145.015625 168.628906 144.734375 169.582031 144.542969 C 170.535156 144.355469 171.496094 144.257812 172.46875 144.257812 C 173.441406 144.257812 174.40625 144.355469 175.359375 144.542969 C 176.3125 144.734375 177.238281 145.015625 178.136719 145.386719 C 179.035156 145.757812 179.886719 146.214844 180.695312 146.753906 C 181.503906 147.292969 182.25 147.910156 182.9375 148.597656 C 183.625 149.285156 184.238281 150.03125 184.78125 150.839844 C 185.320312 151.648438 185.777344 152.5 186.148438 153.398438 C 186.519531 154.296875 186.800781 155.222656 186.992188 156.175781 C 187.179688 157.128906 187.277344 158.09375 187.277344 159.066406 C 187.277344 160.035156 187.179688 161 186.992188 161.953125 C 186.800781 162.90625 186.519531 163.832031 186.148438 164.730469 C 185.777344 165.628906 185.320312 166.480469 184.78125 167.289062 C 184.238281 168.097656 183.625 168.847656 182.9375 169.535156 C 182.25 170.222656 181.503906 170.835938 180.695312 171.375 C 179.886719 171.914062 179.035156 172.371094 178.136719 172.742188 C 177.238281 173.117188 176.3125 173.394531 175.359375 173.585938 C 174.40625 173.777344 173.441406 173.871094 172.46875 173.871094 Z M 172.46875 148.640625 C 171.785156 148.640625 171.109375 148.707031 170.4375 148.839844 C 169.765625 148.972656 169.113281 149.171875 168.480469 149.433594 C 167.847656 149.695312 167.246094 150.015625 166.679688 150.398438 C 166.109375 150.777344 165.582031 151.210938 165.097656 151.691406 C 164.613281 152.175781 164.183594 152.703125 163.800781 153.273438 C 163.421875 153.84375 163.101562 154.441406 162.839844 155.074219 C 162.578125 155.707031 162.378906 156.359375 162.246094 157.03125 C 162.113281 157.703125 162.042969 158.378906 162.042969 159.066406 C 162.042969 159.75 162.113281 160.425781 162.246094 161.097656 C 162.378906 161.769531 162.578125 162.421875 162.839844 163.054688 C 163.101562 163.6875 163.421875 164.289062 163.800781 164.855469 C 164.183594 165.425781 164.613281 165.953125 165.097656 166.4375 C 165.582031 166.921875 166.109375 167.351562 166.679688 167.734375 C 167.246094 168.113281 167.847656 168.433594 168.480469 168.695312 C 169.113281 168.957031 169.765625 169.15625 170.4375 169.289062 C 171.109375 169.421875 171.785156 169.488281 172.46875 169.488281 C 173.15625 169.488281 173.832031 169.421875 174.503906 169.289062 C 175.175781 169.15625 175.828125 168.957031 176.460938 168.695312 C 177.09375 168.433594 177.691406 168.113281 178.261719 167.734375 C 178.832031 167.351562 179.359375 166.921875 179.839844 166.4375 C 180.324219 165.953125 180.757812 165.425781 181.136719 164.855469 C 181.519531 164.289062 181.839844 163.6875 182.101562 163.054688 C 182.363281 162.421875 182.5625 161.769531 182.695312 161.097656 C 182.828125 160.425781 182.894531 159.75 182.894531 159.066406 C 182.894531 158.378906 182.828125 157.703125 182.691406 157.03125 C 182.558594 156.359375 182.359375 155.710938 182.097656 155.078125 C 181.835938 154.445312 181.515625 153.84375 181.132812 153.277344 C 180.753906 152.707031 180.320312 152.179688 179.835938 151.699219 C 179.355469 151.214844 178.828125 150.78125 178.257812 150.402344 C 177.691406 150.019531 177.089844 149.699219 176.457031 149.4375 C 175.824219 149.175781 175.171875 148.976562 174.503906 148.84375 C 173.832031 148.707031 173.152344 148.640625 172.46875 148.640625 Z M 172.46875 148.640625 " fill-opacity="1" fill-rule="nonzero"></path>
  </g>
  <g clip-path="url(#f65d558ec3)">
    <path fill="#167544" d="M 227.0625 173.871094 C 226.089844 173.871094 225.128906 173.777344 224.175781 173.585938 C 223.222656 173.394531 222.296875 173.117188 221.398438 172.742188 C 220.5 172.371094 219.644531 171.914062 218.835938 171.375 C 218.03125 170.835938 217.28125 170.222656 216.59375 169.535156 C 215.90625 168.847656 215.292969 168.097656 214.753906 167.289062 C 214.210938 166.480469 213.757812 165.628906 213.382812 164.730469 C 213.011719 163.832031 212.730469 162.90625 212.542969 161.953125 C 212.351562 161 212.257812 160.035156 212.257812 159.066406 C 212.257812 158.09375 212.351562 157.128906 212.542969 156.175781 C 212.730469 155.222656 213.011719 154.296875 213.382812 153.398438 C 213.757812 152.5 214.210938 151.648438 214.753906 150.839844 C 215.292969 150.03125 215.90625 149.285156 216.59375 148.597656 C 217.28125 147.910156 218.03125 147.292969 218.835938 146.753906 C 219.644531 146.214844 220.5 145.757812 221.398438 145.386719 C 222.296875 145.015625 223.222656 144.734375 224.175781 144.542969 C 225.128906 144.355469 226.089844 144.257812 227.0625 144.257812 C 228.035156 144.257812 229 144.355469 229.953125 144.542969 C 230.90625 144.734375 231.832031 145.015625 232.730469 145.386719 C 233.628906 145.757812 234.480469 146.214844 235.289062 146.753906 C 236.097656 147.292969 236.84375 147.910156 237.53125 148.597656 C 238.21875 149.285156 238.832031 150.03125 239.375 150.839844 C 239.914062 151.648438 240.371094 152.5 240.742188 153.398438 C 241.113281 154.296875 241.394531 155.222656 241.585938 156.175781 C 241.773438 157.128906 241.867188 158.09375 241.867188 159.066406 C 241.867188 160.035156 241.773438 161 241.582031 161.953125 C 241.390625 162.90625 241.109375 163.832031 240.738281 164.726562 C 240.367188 165.625 239.910156 166.480469 239.367188 167.285156 C 238.828125 168.09375 238.214844 168.84375 237.527344 169.53125 C 236.839844 170.21875 236.09375 170.832031 235.285156 171.371094 C 234.476562 171.910156 233.625 172.367188 232.726562 172.738281 C 231.828125 173.113281 230.902344 173.394531 229.949219 173.582031 C 228.996094 173.773438 228.035156 173.871094 227.0625 173.871094 Z M 227.0625 148.640625 C 226.378906 148.640625 225.699219 148.707031 225.027344 148.839844 C 224.359375 148.972656 223.707031 149.171875 223.074219 149.433594 C 222.441406 149.695312 221.839844 150.015625 221.269531 150.398438 C 220.703125 150.777344 220.175781 151.210938 219.691406 151.691406 C 219.207031 152.175781 218.773438 152.703125 218.394531 153.273438 C 218.015625 153.84375 217.695312 154.441406 217.429688 155.074219 C 217.167969 155.707031 216.972656 156.359375 216.839844 157.03125 C 216.703125 157.703125 216.636719 158.378906 216.636719 159.066406 C 216.636719 159.75 216.703125 160.425781 216.839844 161.097656 C 216.972656 161.769531 217.167969 162.421875 217.429688 163.054688 C 217.695312 163.6875 218.015625 164.289062 218.394531 164.855469 C 218.773438 165.425781 219.207031 165.953125 219.691406 166.4375 C 220.175781 166.921875 220.703125 167.351562 221.269531 167.734375 C 221.839844 168.113281 222.441406 168.433594 223.074219 168.695312 C 223.707031 168.957031 224.359375 169.15625 225.027344 169.289062 C 225.699219 169.421875 226.378906 169.488281 227.0625 169.488281 C 227.746094 169.488281 228.425781 169.421875 229.097656 169.289062 C 229.769531 169.15625 230.421875 168.957031 231.050781 168.695312 C 231.683594 168.433594 232.285156 168.113281 232.855469 167.734375 C 233.425781 167.351562 233.949219 166.921875 234.433594 166.4375 C 234.917969 165.953125 235.351562 165.425781 235.730469 164.855469 C 236.113281 164.289062 236.433594 163.6875 236.695312 163.054688 C 236.957031 162.421875 237.15625 161.769531 237.289062 161.097656 C 237.421875 160.425781 237.488281 159.75 237.488281 159.066406 C 237.484375 158.382812 237.417969 157.703125 237.28125 157.03125 C 237.148438 156.363281 236.949219 155.710938 236.6875 155.078125 C 236.425781 154.449219 236.101562 153.847656 235.722656 153.28125 C 235.34375 152.710938 234.910156 152.183594 234.425781 151.703125 C 233.941406 151.21875 233.417969 150.785156 232.847656 150.40625 C 232.28125 150.023438 231.679688 149.703125 231.046875 149.441406 C 230.417969 149.179688 229.765625 148.980469 229.09375 148.84375 C 228.425781 148.710938 227.746094 148.640625 227.0625 148.640625 Z M 227.0625 148.640625 " fill-opacity="1" fill-rule="nonzero"></path>
  </g>
  <g clip-path="url(#8f90ead89d)">
    <path fill="#167544" d="M 239.679688 129.6875 L 204.152344 129.6875 C 203.863281 129.6875 203.585938 129.632812 203.316406 129.519531 C 203.046875 129.410156 202.8125 129.25 202.605469 129.046875 C 202.398438 128.839844 202.242188 128.605469 202.128906 128.335938 C 202.019531 128.066406 201.964844 127.789062 201.964844 127.496094 L 201.964844 98.5 C 201.964844 98.210938 202.019531 97.929688 202.128906 97.660156 C 202.242188 97.394531 202.398438 97.15625 202.605469 96.953125 C 202.8125 96.746094 203.046875 96.585938 203.316406 96.476562 C 203.585938 96.367188 203.863281 96.308594 204.152344 96.308594 L 215.339844 96.308594 C 216.375 96.308594 217.398438 96.433594 218.40625 96.6875 C 219.414062 96.945312 220.371094 97.320312 221.285156 97.816406 C 222.195312 98.3125 223.03125 98.914062 223.792969 99.621094 C 224.554688 100.328125 225.214844 101.117188 225.777344 101.988281 L 241.519531 126.316406 C 241.738281 126.652344 241.859375 127.019531 241.875 127.421875 C 241.890625 127.824219 241.804688 128.199219 241.613281 128.554688 C 241.417969 128.90625 241.148438 129.183594 240.800781 129.390625 C 240.457031 129.59375 240.082031 129.691406 239.679688 129.6875 Z M 206.34375 125.308594 L 235.648438 125.308594 L 222.097656 104.371094 C 221.734375 103.804688 221.308594 103.292969 220.8125 102.835938 C 220.320312 102.375 219.78125 101.988281 219.1875 101.664062 C 218.597656 101.34375 217.976562 101.101562 217.324219 100.933594 C 216.671875 100.769531 216.011719 100.6875 215.339844 100.691406 L 206.34375 100.691406 Z M 206.34375 125.308594 " fill-opacity="1" fill-rule="nonzero"></path>
  </g>
  <path fill="#167544" d="M 162.585938 116.679688 L 139.691406 116.679688 C 139.398438 116.679688 139.121094 116.621094 138.851562 116.511719 C 138.585938 116.398438 138.347656 116.242188 138.140625 116.035156 C 137.9375 115.832031 137.777344 115.59375 137.667969 115.328125 C 137.554688 115.058594 137.5 114.777344 137.5 114.488281 C 137.5 114.199219 137.554688 113.917969 137.667969 113.648438 C 137.777344 113.382812 137.9375 113.144531 138.140625 112.9375 C 138.347656 112.734375 138.585938 112.574219 138.851562 112.464844 C 139.121094 112.351562 139.398438 112.296875 139.691406 112.296875 L 162.585938 112.296875 C 162.875 112.296875 163.15625 112.351562 163.421875 112.464844 C 163.691406 112.574219 163.929688 112.734375 164.132812 112.9375 C 164.339844 113.144531 164.496094 113.382812 164.609375 113.648438 C 164.71875 113.917969 164.773438 114.199219 164.773438 114.488281 C 164.773438 114.777344 164.71875 115.058594 164.609375 115.328125 C 164.496094 115.59375 164.339844 115.832031 164.132812 116.035156 C 163.929688 116.242188 163.691406 116.398438 163.421875 116.511719 C 163.15625 116.621094 162.875 116.679688 162.585938 116.679688 Z M 162.585938 116.679688 " fill-opacity="1" fill-rule="nonzero"></path>
  <g clip-path="url(#a22be6922f)">
    <path fill="#167544" d="M 152.277344 132.5625 L 125.074219 132.5625 C 124.785156 132.5625 124.503906 132.507812 124.238281 132.398438 C 123.96875 132.285156 123.730469 132.128906 123.527344 131.921875 C 123.320312 131.71875 123.164062 131.480469 123.050781 131.210938 C 122.941406 130.945312 122.886719 130.664062 122.886719 130.375 C 122.886719 130.082031 122.941406 129.804688 123.050781 129.535156 C 123.164062 129.265625 123.320312 129.03125 123.527344 128.824219 C 123.730469 128.621094 123.96875 128.460938 124.238281 128.351562 C 124.503906 128.238281 124.785156 128.183594 125.074219 128.183594 L 152.277344 128.183594 C 152.566406 128.183594 152.847656 128.238281 153.113281 128.351562 C 153.382812 128.460938 153.621094 128.621094 153.824219 128.824219 C 154.03125 129.03125 154.1875 129.265625 154.300781 129.535156 C 154.410156 129.804688 154.46875 130.082031 154.46875 130.375 C 154.46875 130.664062 154.410156 130.945312 154.300781 131.210938 C 154.1875 131.480469 154.03125 131.71875 153.824219 131.921875 C 153.621094 132.128906 153.382812 132.285156 153.113281 132.398438 C 152.847656 132.507812 152.566406 132.5625 152.277344 132.5625 Z M 152.277344 132.5625 " fill-opacity="1" fill-rule="nonzero"></path>
  </g>
  <path fill="#167544" d="M 149.765625 145.851562 L 133.425781 145.851562 C 133.136719 145.851562 132.855469 145.796875 132.589844 145.683594 C 132.320312 145.574219 132.082031 145.414062 131.878906 145.210938 C 131.671875 145.003906 131.515625 144.765625 131.402344 144.5 C 131.292969 144.230469 131.238281 143.953125 131.238281 143.660156 C 131.238281 143.371094 131.292969 143.089844 131.402344 142.824219 C 131.515625 142.554688 131.671875 142.316406 131.878906 142.113281 C 132.082031 141.90625 132.320312 141.75 132.589844 141.636719 C 132.855469 141.527344 133.136719 141.46875 133.425781 141.46875 L 149.765625 141.46875 C 150.054688 141.46875 150.335938 141.527344 150.605469 141.636719 C 150.871094 141.75 151.109375 141.90625 151.3125 142.113281 C 151.519531 142.316406 151.679688 142.554688 151.789062 142.824219 C 151.898438 143.089844 151.957031 143.371094 151.957031 143.660156 C 151.957031 143.953125 151.898438 144.230469 151.789062 144.5 C 151.679688 144.765625 151.519531 145.003906 151.3125 145.210938 C 151.109375 145.414062 150.871094 145.574219 150.605469 145.683594 C 150.335938 145.796875 150.054688 145.851562 149.765625 145.851562 Z M 149.765625 145.851562 " fill-opacity="1" fill-rule="nonzero"></path>
  <g fill="#167544" fill-opacity="1">
    <g transform="translate(112.190278, 216.479986)">
      <g>
        <path d="M 2.03125 -20.296875 L 10.875 -20.296875 C 13.46875 -20.296875 15.476562 -19.679688 16.90625 -18.453125 C 18.332031 -17.222656 19.046875 -15.476562 19.046875 -13.21875 C 19.046875 -10.84375 18.332031 -9 16.90625 -7.6875 C 15.476562 -6.375 13.46875 -5.71875 10.875 -5.71875 L 7.1875 -5.71875 L 7.1875 0 L 2.03125 0 Z M 7.1875 -16.234375 L 7.1875 -9.765625 L 10.609375 -9.765625 C 11.753906 -9.765625 12.632812 -10.046875 13.25 -10.609375 C 13.875 -11.171875 14.1875 -11.984375 14.1875 -13.046875 C 14.1875 -14.085938 13.875 -14.878906 13.25 -15.421875 C 12.632812 -15.960938 11.753906 -16.234375 10.609375 -16.234375 Z M 7.1875 -16.234375 "></path>
      </g>
    </g>
  </g>
  <g fill="#167544" fill-opacity="1">
    <g transform="translate(133.934958, 216.479986)">
      <g>
        <path d="M 20.765625 0 L 15.609375 0 L 15.609375 -7.890625 L 7.1875 -7.890625 L 7.1875 0 L 2.03125 0 L 2.03125 -20.296875 L 7.1875 -20.296875 L 7.1875 -11.953125 L 15.609375 -11.953125 L 15.609375 -20.296875 L 20.765625 -20.296875 Z M 20.765625 0 "></path>
      </g>
    </g>
  </g>
  <g fill="#167544" fill-opacity="1">
    <g transform="translate(158.752811, 216.479986)">
      <g>
        <path d="M 11.65625 -20.46875 C 14.8125 -20.46875 17.429688 -19.488281 19.515625 -17.53125 C 21.609375 -15.570312 22.65625 -13.117188 22.65625 -10.171875 C 22.65625 -7.210938 21.601562 -4.738281 19.5 -2.75 C 17.40625 -0.757812 14.789062 0.234375 11.65625 0.234375 C 8.519531 0.234375 5.910156 -0.753906 3.828125 -2.734375 C 1.742188 -4.722656 0.703125 -7.203125 0.703125 -10.171875 C 0.703125 -13.128906 1.742188 -15.582031 3.828125 -17.53125 C 5.910156 -19.488281 8.519531 -20.46875 11.65625 -20.46875 Z M 11.71875 -16.15625 C 10.132812 -16.15625 8.78125 -15.578125 7.65625 -14.421875 C 6.53125 -13.273438 5.96875 -11.847656 5.96875 -10.140625 C 5.96875 -8.441406 6.53125 -7.007812 7.65625 -5.84375 C 8.789062 -4.675781 10.140625 -4.09375 11.703125 -4.09375 C 13.273438 -4.09375 14.609375 -4.675781 15.703125 -5.84375 C 16.796875 -7.007812 17.34375 -8.441406 17.34375 -10.140625 C 17.34375 -11.847656 16.796875 -13.273438 15.703125 -14.421875 C 14.609375 -15.578125 13.28125 -16.15625 11.71875 -16.15625 Z M 11.71875 -16.15625 "></path>
      </g>
    </g>
  </g>
  <g fill="#167544" fill-opacity="1">
    <g transform="translate(184.121518, 216.479986)">
      <g>
        <path d="M 17.921875 -16.234375 L 7.1875 -16.234375 L 7.1875 -12.203125 L 16.875 -12.203125 L 16.875 -8.15625 L 7.1875 -8.15625 L 7.1875 -4.0625 L 18.234375 -4.0625 L 18.234375 0 L 2.03125 0 L 2.03125 -20.296875 L 17.921875 -20.296875 Z M 17.921875 -16.234375 "></path>
      </g>
    </g>
  </g>
  <g fill="#167544" fill-opacity="1">
    <g transform="translate(205.692244, 216.479986)">
      <g>
        <path d="M 20.765625 0 L 16.21875 0 L 6.875 -12.5 L 6.875 0 L 2.03125 0 L 2.03125 -20.296875 L 6.578125 -20.296875 L 15.953125 -7.765625 L 15.953125 -20.296875 L 20.765625 -20.296875 Z M 20.765625 0 "></path>
      </g>
    </g>
  </g>
  <g fill="#167544" fill-opacity="1">
    <g transform="translate(230.510094, 216.479986)">
      <g>
        <path d="M 7.1875 0 L 2.03125 0 L 2.03125 -20.296875 L 7.1875 -20.296875 Z M 7.1875 0 "></path>
      </g>
    </g>
  </g>
  <g fill="#167544" fill-opacity="1">
    <g transform="translate(241.759602, 216.479986)">
      <g>
        <path d="M 13.796875 -10.609375 L 21.078125 0 L 14.90625 0 L 10.53125 -6.46875 L 6.140625 0 L 0.140625 0 L 7.390625 -10.375 L 0.609375 -20.296875 L 6.609375 -20.296875 L 10.53125 -14.390625 L 14.4375 -20.296875 L 20.5 -20.296875 Z M 13.796875 -10.609375 "></path>
      </g>
    </g>
  </g>
  <g fill="#167544" fill-opacity="1">
    <g transform="translate(102.159029, 250.229984)">
      <g>
        <path d="M 7.1875 -4.328125 L 15.8125 -4.328125 L 15.8125 0 L 2.03125 0 L 2.03125 -20.296875 L 7.1875 -20.296875 Z M 7.1875 -4.328125 "></path>
      </g>
    </g>
  </g>
  <g fill="#167544" fill-opacity="1">
    <g transform="translate(120.424648, 250.229984)">
      <g>
        <path d="M 11.65625 -20.46875 C 14.8125 -20.46875 17.429688 -19.488281 19.515625 -17.53125 C 21.609375 -15.570312 22.65625 -13.117188 22.65625 -10.171875 C 22.65625 -7.210938 21.601562 -4.738281 19.5 -2.75 C 17.40625 -0.757812 14.789062 0.234375 11.65625 0.234375 C 8.519531 0.234375 5.910156 -0.753906 3.828125 -2.734375 C 1.742188 -4.722656 0.703125 -7.203125 0.703125 -10.171875 C 0.703125 -13.128906 1.742188 -15.582031 3.828125 -17.53125 C 5.910156 -19.488281 8.519531 -20.46875 11.65625 -20.46875 Z M 11.71875 -16.15625 C 10.132812 -16.15625 8.78125 -15.578125 7.65625 -14.421875 C 6.53125 -13.273438 5.96875 -11.847656 5.96875 -10.140625 C 5.96875 -8.441406 6.53125 -7.007812 7.65625 -5.84375 C 8.789062 -4.675781 10.140625 -4.09375 11.703125 -4.09375 C 13.273438 -4.09375 14.609375 -4.675781 15.703125 -5.84375 C 16.796875 -7.007812 17.34375 -8.441406 17.34375 -10.140625 C 17.34375 -11.847656 16.796875 -13.273438 15.703125 -14.421875 C 14.609375 -15.578125 13.28125 -16.15625 11.71875 -16.15625 Z M 11.71875 -16.15625 "></path>
      </g>
    </g>
  </g>
  <g fill="#167544" fill-opacity="1">
    <g transform="translate(145.793351, 250.229984)">
      <g>
        <path d="M 15.515625 -10.328125 L 19.984375 -10.328125 L 19.984375 -2.40625 C 18.878906 -1.632812 17.546875 -1 15.984375 -0.5 C 14.429688 -0.0078125 12.953125 0.234375 11.546875 0.234375 C 8.453125 0.234375 5.867188 -0.753906 3.796875 -2.734375 C 1.734375 -4.722656 0.703125 -7.195312 0.703125 -10.15625 C 0.703125 -13.09375 1.765625 -15.546875 3.890625 -17.515625 C 6.015625 -19.484375 8.679688 -20.46875 11.890625 -20.46875 C 13.398438 -20.46875 14.898438 -20.195312 16.390625 -19.65625 C 17.878906 -19.113281 19.144531 -18.378906 20.1875 -17.453125 L 17.28125 -13.953125 C 16.550781 -14.628906 15.703125 -15.164062 14.734375 -15.5625 C 13.765625 -15.957031 12.804688 -16.15625 11.859375 -16.15625 C 10.191406 -16.15625 8.789062 -15.578125 7.65625 -14.421875 C 6.53125 -13.273438 5.96875 -11.851562 5.96875 -10.15625 C 5.96875 -8.425781 6.535156 -6.984375 7.671875 -5.828125 C 8.816406 -4.671875 10.234375 -4.09375 11.921875 -4.09375 C 13.003906 -4.09375 14.203125 -4.421875 15.515625 -5.078125 Z M 15.515625 -10.328125 "></path>
      </g>
    </g>
  </g>
  <g fill="#167544" fill-opacity="1">
    <g transform="translate(169.364545, 250.229984)">
      <g>
        <path d="M 7.1875 0 L 2.03125 0 L 2.03125 -20.296875 L 7.1875 -20.296875 Z M 7.1875 0 "></path>
      </g>
    </g>
  </g>
  <g fill="#167544" fill-opacity="1">
    <g transform="translate(180.614053, 250.229984)">
      <g>
        <path d="M 9.828125 -20.53125 C 12.867188 -20.53125 15.535156 -19.773438 17.828125 -18.265625 L 15.890625 -14.234375 C 14.828125 -14.859375 13.6875 -15.367188 12.46875 -15.765625 C 11.25 -16.160156 10.222656 -16.359375 9.390625 -16.359375 C 7.898438 -16.359375 7.15625 -15.863281 7.15625 -14.875 C 7.15625 -14.238281 7.519531 -13.726562 8.25 -13.34375 C 8.988281 -12.957031 9.882812 -12.625 10.9375 -12.34375 C 12 -12.0625 13.054688 -11.722656 14.109375 -11.328125 C 15.160156 -10.929688 16.050781 -10.285156 16.78125 -9.390625 C 17.519531 -8.503906 17.890625 -7.382812 17.890625 -6.03125 C 17.890625 -4.082031 17.125 -2.5625 15.59375 -1.46875 C 14.070312 -0.375 12.128906 0.171875 9.765625 0.171875 C 8.085938 0.171875 6.425781 -0.113281 4.78125 -0.6875 C 3.132812 -1.269531 1.707031 -2.066406 0.5 -3.078125 L 2.5 -7.046875 C 3.519531 -6.160156 4.722656 -5.429688 6.109375 -4.859375 C 7.503906 -4.285156 8.742188 -4 9.828125 -4 C 10.660156 -4 11.304688 -4.148438 11.765625 -4.453125 C 12.234375 -4.753906 12.46875 -5.191406 12.46875 -5.765625 C 12.46875 -6.328125 12.203125 -6.796875 11.671875 -7.171875 C 11.140625 -7.554688 10.476562 -7.835938 9.6875 -8.015625 C 8.894531 -8.203125 8.035156 -8.445312 7.109375 -8.75 C 6.179688 -9.0625 5.316406 -9.398438 4.515625 -9.765625 C 3.722656 -10.140625 3.0625 -10.726562 2.53125 -11.53125 C 2 -12.332031 1.734375 -13.289062 1.734375 -14.40625 C 1.734375 -16.269531 2.472656 -17.753906 3.953125 -18.859375 C 5.429688 -19.972656 7.390625 -20.53125 9.828125 -20.53125 Z M 9.828125 -20.53125 "></path>
      </g>
    </g>
  </g>
  <g fill="#167544" fill-opacity="1">
    <g transform="translate(201.315017, 250.229984)">
      <g>
        <path d="M 17.546875 -16.15625 L 11.421875 -16.15625 L 11.421875 0 L 6.265625 0 L 6.265625 -16.15625 L 0.203125 -16.15625 L 0.203125 -20.328125 L 17.546875 -20.328125 Z M 17.546875 -16.15625 "></path>
      </g>
    </g>
  </g>
  <g fill="#167544" fill-opacity="1">
    <g transform="translate(221.059233, 250.229984)">
      <g>
        <path d="M 7.1875 0 L 2.03125 0 L 2.03125 -20.296875 L 7.1875 -20.296875 Z M 7.1875 0 "></path>
      </g>
    </g>
  </g>
  <g fill="#167544" fill-opacity="1">
    <g transform="translate(232.30874, 250.229984)">
      <g>
        <path d="M 11.546875 -20.46875 C 13.046875 -20.46875 14.523438 -20.160156 15.984375 -19.546875 C 17.453125 -18.929688 18.695312 -18.097656 19.71875 -17.046875 L 16.734375 -13.515625 C 16.078125 -14.328125 15.285156 -14.96875 14.359375 -15.4375 C 13.441406 -15.914062 12.53125 -16.15625 11.625 -16.15625 C 10.019531 -16.15625 8.675781 -15.585938 7.59375 -14.453125 C 6.507812 -13.328125 5.96875 -11.929688 5.96875 -10.265625 C 5.96875 -8.566406 6.507812 -7.144531 7.59375 -6 C 8.675781 -4.863281 10.019531 -4.296875 11.625 -4.296875 C 12.476562 -4.296875 13.363281 -4.503906 14.28125 -4.921875 C 15.195312 -5.347656 16.015625 -5.929688 16.734375 -6.671875 L 19.75 -3.484375 C 18.644531 -2.359375 17.34375 -1.457031 15.84375 -0.78125 C 14.34375 -0.101562 12.851562 0.234375 11.375 0.234375 C 8.3125 0.234375 5.765625 -0.757812 3.734375 -2.75 C 1.710938 -4.738281 0.703125 -7.222656 0.703125 -10.203125 C 0.703125 -13.128906 1.734375 -15.570312 3.796875 -17.53125 C 5.867188 -19.488281 8.453125 -20.46875 11.546875 -20.46875 Z M 11.546875 -20.46875 "></path>
      </g>
    </g>
  </g>
  <g fill="#167544" fill-opacity="1">
    <g transform="translate(254.401329, 250.229984)">
      <g>
        <path d="M 9.828125 -20.53125 C 12.867188 -20.53125 15.535156 -19.773438 17.828125 -18.265625 L 15.890625 -14.234375 C 14.828125 -14.859375 13.6875 -15.367188 12.46875 -15.765625 C 11.25 -16.160156 10.222656 -16.359375 9.390625 -16.359375 C 7.898438 -16.359375 7.15625 -15.863281 7.15625 -14.875 C 7.15625 -14.238281 7.519531 -13.726562 8.25 -13.34375 C 8.988281 -12.957031 9.882812 -12.625 10.9375 -12.34375 C 12 -12.0625 13.054688 -11.722656 14.109375 -11.328125 C 15.160156 -10.929688 16.050781 -10.285156 16.78125 -9.390625 C 17.519531 -8.503906 17.890625 -7.382812 17.890625 -6.03125 C 17.890625 -4.082031 17.125 -2.5625 15.59375 -1.46875 C 14.070312 -0.375 12.128906 0.171875 9.765625 0.171875 C 8.085938 0.171875 6.425781 -0.113281 4.78125 -0.6875 C 3.132812 -1.269531 1.707031 -2.066406 0.5 -3.078125 L 2.5 -7.046875 C 3.519531 -6.160156 4.722656 -5.429688 6.109375 -4.859375 C 7.503906 -4.285156 8.742188 -4 9.828125 -4 C 10.660156 -4 11.304688 -4.148438 11.765625 -4.453125 C 12.234375 -4.753906 12.46875 -5.191406 12.46875 -5.765625 C 12.46875 -6.328125 12.203125 -6.796875 11.671875 -7.171875 C 11.140625 -7.554688 10.476562 -7.835938 9.6875 -8.015625 C 8.894531 -8.203125 8.035156 -8.445312 7.109375 -8.75 C 6.179688 -9.0625 5.316406 -9.398438 4.515625 -9.765625 C 3.722656 -10.140625 3.0625 -10.726562 2.53125 -11.53125 C 2 -12.332031 1.734375 -13.289062 1.734375 -14.40625 C 1.734375 -16.269531 2.472656 -17.753906 3.953125 -18.859375 C 5.429688 -19.972656 7.390625 -20.53125 9.828125 -20.53125 Z M 9.828125 -20.53125 "></path>
      </g>
    </g>
  </g>
  <g fill="#167544" fill-opacity="1">
    <g transform="translate(150.418764, 274.924669)">
      <g>
        <path d="M 3.859375 -8.453125 C 4.953125 -8.453125 5.929688 -8.164062 6.796875 -7.59375 L 6.21875 -6.34375 C 5.363281 -6.863281 4.539062 -7.125 3.75 -7.125 C 3.332031 -7.125 3 -7.046875 2.75 -6.890625 C 2.507812 -6.742188 2.390625 -6.53125 2.390625 -6.25 C 2.390625 -5.96875 2.5 -5.726562 2.71875 -5.53125 C 2.945312 -5.34375 3.226562 -5.203125 3.5625 -5.109375 C 3.894531 -5.015625 4.257812 -4.894531 4.65625 -4.75 C 5.050781 -4.613281 5.414062 -4.46875 5.75 -4.3125 C 6.082031 -4.15625 6.359375 -3.910156 6.578125 -3.578125 C 6.796875 -3.242188 6.90625 -2.84375 6.90625 -2.375 C 6.90625 -1.632812 6.609375 -1.046875 6.015625 -0.609375 C 5.429688 -0.171875 4.675781 0.046875 3.75 0.046875 C 3.101562 0.046875 2.476562 -0.0703125 1.875 -0.3125 C 1.28125 -0.550781 0.757812 -0.875 0.3125 -1.28125 L 0.921875 -2.515625 C 1.347656 -2.117188 1.8125 -1.8125 2.3125 -1.59375 C 2.820312 -1.382812 3.304688 -1.28125 3.765625 -1.28125 C 4.265625 -1.28125 4.648438 -1.367188 4.921875 -1.546875 C 5.203125 -1.734375 5.34375 -1.984375 5.34375 -2.296875 C 5.34375 -2.585938 5.226562 -2.832031 5 -3.03125 C 4.78125 -3.226562 4.5 -3.367188 4.15625 -3.453125 C 3.820312 -3.546875 3.457031 -3.660156 3.0625 -3.796875 C 2.675781 -3.929688 2.3125 -4.070312 1.96875 -4.21875 C 1.632812 -4.363281 1.351562 -4.597656 1.125 -4.921875 C 0.90625 -5.253906 0.796875 -5.65625 0.796875 -6.125 C 0.796875 -6.832031 1.078125 -7.394531 1.640625 -7.8125 C 2.203125 -8.238281 2.941406 -8.453125 3.859375 -8.453125 Z M 3.859375 -8.453125 "></path>
      </g>
    </g>
  </g>
  <g fill="#167544" fill-opacity="1">
    <g transform="translate(158.722783, 274.924669)">
      <g>
        <path d="M 2.515625 0 L 1.109375 0 L 1.109375 -8.40625 L 2.515625 -8.40625 Z M 2.515625 0 "></path>
      </g>
    </g>
  </g>
  <g fill="#167544" fill-opacity="1">
    <g transform="translate(163.186794, 274.924669)">
      <g>
        <path d="M 8.390625 0 L 7 0 L 2.515625 -6.03125 L 2.515625 0 L 1.109375 0 L 1.109375 -8.40625 L 2.5 -8.40625 L 7 -2.359375 L 7 -8.40625 L 8.390625 -8.40625 Z M 8.390625 0 "></path>
      </g>
    </g>
  </g>
  <g fill="#167544" fill-opacity="1">
    <g transform="translate(173.530815, 274.924669)">
      <g>
        <path d="M 4.828125 -8.4375 C 5.421875 -8.4375 6 -8.320312 6.5625 -8.09375 C 7.125 -7.863281 7.609375 -7.546875 8.015625 -7.140625 L 7.1875 -6.109375 C 6.882812 -6.429688 6.523438 -6.6875 6.109375 -6.875 C 5.691406 -7.070312 5.269531 -7.171875 4.84375 -7.171875 C 4.007812 -7.171875 3.300781 -6.882812 2.71875 -6.3125 C 2.132812 -5.738281 1.84375 -5.039062 1.84375 -4.21875 C 1.84375 -3.382812 2.132812 -2.679688 2.71875 -2.109375 C 3.300781 -1.546875 4.007812 -1.265625 4.84375 -1.265625 C 5.71875 -1.265625 6.5 -1.59375 7.1875 -2.25 L 8.03125 -1.3125 C 7.59375 -0.894531 7.085938 -0.5625 6.515625 -0.3125 C 5.941406 -0.0625 5.363281 0.0625 4.78125 0.0625 C 3.539062 0.0625 2.5 -0.347656 1.65625 -1.171875 C 0.820312 -1.992188 0.40625 -3.007812 0.40625 -4.21875 C 0.40625 -5.40625 0.832031 -6.40625 1.6875 -7.21875 C 2.539062 -8.03125 3.585938 -8.4375 4.828125 -8.4375 Z M 4.828125 -8.4375 "></path>
      </g>
    </g>
  </g>
  <g fill="#167544" fill-opacity="1">
    <g transform="translate(182.734831, 274.924669)">
      <g>
        <path d="M 7.109375 -7.125 L 2.515625 -7.125 L 2.515625 -4.859375 L 6.625 -4.859375 L 6.625 -3.59375 L 2.515625 -3.59375 L 2.515625 -1.265625 L 7.25 -1.265625 L 7.25 0 L 1.109375 0 L 1.109375 -8.40625 L 7.109375 -8.40625 Z M 7.109375 -7.125 "></path>
      </g>
    </g>
  </g>
  <g fill="#167544" fill-opacity="1">
    <g transform="translate(191.446843, 274.924669)">
      <g></g>
    </g>
  </g>
  <g fill="#167544" fill-opacity="1">
    <g transform="translate(195.382846, 274.924669)">
      <g>
        <path d="M 3.21875 0 L 1.796875 0 L 1.796875 -7.140625 L 0.15625 -7.140625 L 0.15625 -8.40625 L 3.21875 -8.40625 Z M 3.21875 0 "></path>
      </g>
    </g>
  </g>
  <g fill="#167544" fill-opacity="1">
    <g transform="translate(200.866857, 274.924669)">
      <g>
        <path d="M 3.25 0.0625 C 2.332031 0.0625 1.5 -0.148438 0.75 -0.578125 L 1.296875 -1.640625 C 1.835938 -1.285156 2.457031 -1.109375 3.15625 -1.109375 C 3.945312 -1.109375 4.539062 -1.378906 4.9375 -1.921875 C 5.332031 -2.472656 5.519531 -3.21875 5.5 -4.15625 C 5.050781 -3.363281 4.285156 -2.96875 3.203125 -2.96875 C 2.359375 -2.96875 1.695312 -3.207031 1.21875 -3.6875 C 0.738281 -4.175781 0.5 -4.828125 0.5 -5.640625 C 0.5 -6.503906 0.765625 -7.1875 1.296875 -7.6875 C 1.835938 -8.195312 2.554688 -8.453125 3.453125 -8.453125 C 4.515625 -8.453125 5.347656 -8.09375 5.953125 -7.375 C 6.566406 -6.65625 6.875 -5.65625 6.875 -4.375 C 6.875 -3.03125 6.546875 -1.953125 5.890625 -1.140625 C 5.234375 -0.335938 4.351562 0.0625 3.25 0.0625 Z M 3.46875 -4.078125 C 4.019531 -4.078125 4.457031 -4.226562 4.78125 -4.53125 C 5.113281 -4.84375 5.273438 -5.222656 5.265625 -5.671875 C 5.273438 -6.078125 5.128906 -6.4375 4.828125 -6.75 C 4.523438 -7.070312 4.09375 -7.234375 3.53125 -7.234375 C 3.007812 -7.234375 2.59375 -7.09375 2.28125 -6.8125 C 1.976562 -6.53125 1.828125 -6.132812 1.828125 -5.625 C 1.828125 -5.144531 1.972656 -4.765625 2.265625 -4.484375 C 2.554688 -4.210938 2.957031 -4.078125 3.46875 -4.078125 Z M 3.46875 -4.078125 "></path>
      </g>
    </g>
  </g>
  <g fill="#167544" fill-opacity="1">
    <g transform="translate(209.086879, 274.924669)">
      <g>
        <path d="M 3.25 0.0625 C 2.332031 0.0625 1.5 -0.148438 0.75 -0.578125 L 1.296875 -1.640625 C 1.835938 -1.285156 2.457031 -1.109375 3.15625 -1.109375 C 3.945312 -1.109375 4.539062 -1.378906 4.9375 -1.921875 C 5.332031 -2.472656 5.519531 -3.21875 5.5 -4.15625 C 5.050781 -3.363281 4.285156 -2.96875 3.203125 -2.96875 C 2.359375 -2.96875 1.695312 -3.207031 1.21875 -3.6875 C 0.738281 -4.175781 0.5 -4.828125 0.5 -5.640625 C 0.5 -6.503906 0.765625 -7.1875 1.296875 -7.6875 C 1.835938 -8.195312 2.554688 -8.453125 3.453125 -8.453125 C 4.515625 -8.453125 5.347656 -8.09375 5.953125 -7.375 C 6.566406 -6.65625 6.875 -5.65625 6.875 -4.375 C 6.875 -3.03125 6.546875 -1.953125 5.890625 -1.140625 C 5.234375 -0.335938 4.351562 0.0625 3.25 0.0625 Z M 3.46875 -4.078125 C 4.019531 -4.078125 4.457031 -4.226562 4.78125 -4.53125 C 5.113281 -4.84375 5.273438 -5.222656 5.265625 -5.671875 C 5.273438 -6.078125 5.128906 -6.4375 4.828125 -6.75 C 4.523438 -7.070312 4.09375 -7.234375 3.53125 -7.234375 C 3.007812 -7.234375 2.59375 -7.09375 2.28125 -6.8125 C 1.976562 -6.53125 1.828125 -6.132812 1.828125 -5.625 C 1.828125 -5.144531 1.972656 -4.765625 2.265625 -4.484375 C 2.554688 -4.210938 2.957031 -4.078125 3.46875 -4.078125 Z M 3.46875 -4.078125 "></path>
      </g>
    </g>
  </g>
  <g fill="#167544" fill-opacity="1">
    <g transform="translate(217.306901, 274.924669)">
      <g>
        <path d="M 1.703125 -7.875 C 2.203125 -8.257812 2.882812 -8.453125 3.75 -8.453125 C 4.613281 -8.453125 5.300781 -8.257812 5.8125 -7.875 C 6.320312 -7.488281 6.578125 -6.957031 6.578125 -6.28125 C 6.578125 -5.882812 6.46875 -5.53125 6.25 -5.21875 C 6.03125 -4.90625 5.722656 -4.660156 5.328125 -4.484375 C 5.847656 -4.316406 6.253906 -4.046875 6.546875 -3.671875 C 6.847656 -3.296875 7 -2.859375 7 -2.359375 C 7 -1.609375 6.707031 -1.015625 6.125 -0.578125 C 5.539062 -0.148438 4.75 0.0625 3.75 0.0625 C 2.757812 0.0625 1.972656 -0.148438 1.390625 -0.578125 C 0.816406 -1.003906 0.53125 -1.585938 0.53125 -2.328125 C 0.53125 -2.835938 0.679688 -3.28125 0.984375 -3.65625 C 1.296875 -4.039062 1.71875 -4.316406 2.25 -4.484375 C 1.382812 -4.890625 0.953125 -5.507812 0.953125 -6.34375 C 0.953125 -6.988281 1.203125 -7.5 1.703125 -7.875 Z M 3.75 -7.4375 C 3.25 -7.4375 2.851562 -7.328125 2.5625 -7.109375 C 2.28125 -6.898438 2.140625 -6.597656 2.140625 -6.203125 C 2.140625 -5.804688 2.28125 -5.503906 2.5625 -5.296875 C 2.851562 -5.085938 3.25 -4.984375 3.75 -4.984375 C 4.269531 -4.984375 4.664062 -5.085938 4.9375 -5.296875 C 5.21875 -5.503906 5.359375 -5.804688 5.359375 -6.203125 C 5.359375 -6.597656 5.21875 -6.898438 4.9375 -7.109375 C 4.664062 -7.328125 4.269531 -7.4375 3.75 -7.4375 Z M 3.75 -3.875 C 3.164062 -3.875 2.707031 -3.75 2.375 -3.5 C 2.039062 -3.257812 1.875 -2.921875 1.875 -2.484375 C 1.875 -2.023438 2.035156 -1.671875 2.359375 -1.421875 C 2.691406 -1.179688 3.15625 -1.0625 3.75 -1.0625 C 4.351562 -1.0625 4.820312 -1.179688 5.15625 -1.421875 C 5.488281 -1.671875 5.65625 -2.023438 5.65625 -2.484375 C 5.65625 -2.921875 5.488281 -3.257812 5.15625 -3.5 C 4.820312 -3.75 4.351562 -3.875 3.75 -3.875 Z M 3.75 -3.875 "></path>
      </g>
    </g>
  </g>
</svg>
