<?xml version="1.0" encoding="UTF-8"?>
<svg xmlns="http://www.w3.org/2000/svg" id="Ebene_1" version="1.1" viewBox="0 0 400 400">
  <g>
    <path d="M182.3512115,190.9008942c-3.8216858,3.6520233-1.3768768,8.2760773,2.5040741,10.5179291,8.0131226,4.62883,21.1652222,5.6625671,22.8854218,17.5055847,3.3405304,22.9985199-29.6125031,27.8089142-38.5316162,9.6808624-.7682648-1.5615082-2.8421021-6.4887085-1.207428-7.7304535.7284851-.5533752,10.3146362-1.637207,10.9532013-1.2268677,1.5333862,6.1062012,4.8220978,9.1287842,11.3637085,8.329361,5.9920959-.7322693,7.4878387-6.6614075,2.3122253-10.2043762-7.5761414-5.1862488-19.1256866-4.342453-23.1446686-15.6725464-8.2283173-23.1968536,25.7445679-34.5459747,35.963913-14.457077.9779816,1.9224854,4.0845795,8.9069366,1.0117645,9.7953339-1.0335999.2988281-8.821228.8406067-9.869751.633194-1.8731079-.3705139-1.4519958-3.6684723-2.4232025-5.4420319-2.1604309-3.9453125-8.6093903-4.7947388-11.8176422-1.7289276v.0000153Z"></path>
    <path d="M355.2779541,188.1009369c-7.9665222,1.3181152-15.8980103-.6622772-23.8865967.1959229l-.7675781.5909119v12.0648041l.7868347.7868347h16.5235291v10.2288513l-.7868347.7868347h-16.5235291v14.6875916h24.6541748c.5509949,3.4129028,1.5440674,8.6551514-.7868347,11.5402527h-35.1452942l-.7868347-.7868347v-60.3240356l.7868347-.7868347h35.1453247l.7868347.7868347v10.2288513l-.0000305.0000153Z"></path>
    <path d="M154.3726807,178.1343689c.5606537.3575745,1.3815155,10.9889526-.7868347,12.0648041h-24.9164581v12.8516388c.4603882.7484589,1.0454865.7239075,1.8092499.8135376,5.08078.596344,11.2232056-1.5743866,15.5011292.7601318v8.3929138c0,.1734467-.69487.7964172-.5245514,1.3113861h-16.7858124v24.6541748c-1.8499908.6546631-12.0648041,1.2778168-12.0648041-.7868347v-58.7503662c0-.1734467.6948776-.7964172.524559-1.3113861h37.2435379-.0000153Z"></path>
    <path d="M230.9579773,178.9212036c.5094757-1.8200684,10.4233856-1.7186279,11.5462341-1.0550995,1.6403656.9693604,1.0556946,10.2703552,1.0644531,12.6171722.0553894,14.8419342-.1511688,30.2401428-.0247345,45.0856323.0086975,1.0218506-.5087891,2.2424774-.6307373,3.2985077-.6999512.9780426-11.9552155,1.2884521-11.9552155-.6712952v-59.2749176Z"></path>
    <path d="M261.3822937,178.9212036c.2282104-.8136749,1.5401917-1.2305298,2.3344421-1.3374634,7.8104858-1.0517426,22.7637939-.4264526,29.3110352,4.3127747,13.3208313,9.6423492,14.4447327,40.4628601,2.6982727,51.3015747-2.2435913,2.0702057-9.1422729,5.7848816-12.0500488,5.7848816h-21.5068359l-.7868347-.7868347v-59.2749329h-.0000305ZM273.9716492,227.9672699c8.7627869.6136932,16.0750122-1.3520966,16.8084412-11.2553558.4170532-5.6314392.8101501-17.95755-2.2084351-22.4909821-3.4604492-5.1970673-8.8625183-5.37677-14.6000061-5.5954437v39.3417816Z"></path>
    <path d="M77.1258774,176.6860809c14.410141-2.0731201,23.7732468,7.2247467,24.7857437,21.124527,1.2338638,16.9386902,1.3400497,43.7781067-22.7509842,41.6309967-20.7338867-1.8479004-19.8186989-26.1218414-18.7038193-41.6565399.701992-9.7815704,6.1397934-19.5841827,16.6690598-21.0989838ZM78.693222,188.2226715c-2.4369049.5063934-5.214119,3.4929962-5.5930481,5.9444885-.7563095,4.8930511-.5879974,21.0340118-.0353928,26.1956177,1.0353775,9.67099,14.4803848,10.3089752,16.1381607.3982849.7872314-4.7063293.6591492-20.0772552.1262665-25.0556183-.5734482-5.3573456-5.3912811-8.5726318-10.6359863-7.4827728Z"></path>
  </g>
  <g>
    <path d="M370.4901123,259.4406738v9.4420166c-.6694946-.2862549-1.553894.5245667-1.8359375.5245667h-27.014679v46.9478455c-1.0696106,1.2840881-2.4510803,2.1073914-3.8455505,2.9736938-16.3223267,10.1403809-37.9752197,19.9882812-55.4181824,29.0354919-27.3688354,14.1954956-54.9645081,27.996521-82.617157,41.6357117l-2.728241-.9039917c-43.6929016-24.1492004-90.6914749-44.3067017-133.9419861-69.0576172-1.6248322-.9298401-3.3560143-1.8308411-4.7096214-3.1587219v-46.6855774l-.7868347-.7868347h-26.7524014c-.1450691,0-1.2239761-.5378723-1.3296432-.8849487l.0375843-9.0625916c5.0277863-.954834,9.949398.2198181,14.9054451-.5684509,105.2488136.5374756,210.6337471-.8850708,315.8061256.5948486,3.1310425.0440674,6.7894897-1.4180908,10.2310791-.0454407ZM73.0663605,307.4376221v-36.7189941c0-1.6607361-4.7210083-1.6607361-4.7210083,0v38.8171997c0,.7388916-.7003708.974823.5482483,2.0720825,43.4102859,22.6825562,86.9884186,45.2715454,130.852829,66.9382019,44.4327393-21.3339844,88.0038757-44.7202148,131.9264832-67.1743469v-40.6531677c0-1.5205078-3.9177551-1.6931458-4.7210083,0v35.6698608c0,.2265625-.615387,1.6322021-.8868103,1.867218l-126.318222,64.4507141c-22.8940887-11.5674744-45.9864349-22.7857056-68.8106232-34.4885559-17.4175262-8.9306335-37.6425476-18.2297058-54.2073822-28.1480408-1.2953568-.7756042-2.6359787-1.4867859-3.662468-2.6322021l-.0000381.0000305ZM163.6692505,270.5734558c-2.2039642.4154663-2.6525726,2.5223694-1.2145996,4.1298828l71.9377441.4988708c4.7127838.0307922,4.4852448-4.239563-.0128326-4.7578125l-70.7103119.1290588ZM105.5871277,277.2814941c-3.6220322-.389801-5.185936-2.7062073-6.5525894-5.773407-1.8960953,1.0681458-1.960083,3.401825-3.1132812,4.7550659-1.0294495,1.2080383-2.9992981,1.4522705-3.9603882,2.8485718,3.0436172,1.6491394,4.8306732,2.9215698,6.5461197,6.0220947,1.2783203-.9501953,1.5954742-2.5375061,2.6040192-3.6809082.8488693-.9623718,5.1165771-3.297699,4.47612-4.1714172ZM304.0491333,276.0487671c-.8457031-.8456726-1.9032593-4.2950745-3.0562439-4.0170898-.5597839.1349487-1.4380798,2.6802368-2.3312378,3.4438171-1.0751343.9191895-3.1599731.9777222-3.630127,2.1409607-.9143982,2.2624512.8041077,1.5440063,1.8637085,2.1588135,1.9443359,1.1282043,3.3949585,3.1380615,3.8360291,5.367157,1.1159058.8061523,2.7566528-3.6697388,3.692749-4.4290466.9284973-.7531738,2.4857788-1.0621643,3.6421814-1.3455505.8085022-1.1057434-3.2940369-2.5960999-4.0170593-3.3190918v.0000305ZM125.5187225,304.5511169c4.582428-.0760803,10.281723,3.849823,13.9209137-.5067139,2.9688568-3.5540771.7075806-4.6610413.80159-7.1157837.0358734-.9368896,1.3923187-1.8641357,1.5653839-3.6511841.6905212-7.1305542-7.6019592-6.8781433-12.6118164-7.6113892,0,0-3.6760635,18.8850708-3.6760712,18.8850708ZM253.91185,287.8806763c-10.3257446,1.4969482-8.5001221,22.4794312,4.9901886,19.6986694,8.8049622-1.8149719,6.1428223-21.3126526-4.9901886-19.6986694ZM158.6738892,301.5079041c.5440521-.91745,2.5687561-.6599731,2.9973297-4.0869141,1.0525818-8.4167175-7.3574829-7.4071045-13.0636292-8.60495l-2.6297302,19.4077454,4.1426849-.0569458c.7840729-1.3100891.0733795-5.8709412,1.4073639-6.1726074l2.774765.5301208c.9627228,3.9923401.4786224,8.0180359,5.8374939,7.2710266.7205811-.708252-2.3780823-6.7499084-1.4662933-8.2875061l.0000153.0000305ZM245.1204529,306.1331177l-3.9077454-1.6090088c-9.5470886,8.3730774-12.4734497-14.5871277-.6028595-8.4004517l2.4043579-2.8486633c-9.411377-7.5939941-17.6968536,2.0608826-13.3618011,12.3209229,2.9248962,6.9225464,12.1228943,7.1564636,15.4680481.5372009ZM180.6005249,307.175354h-7.6060791l-.7041626-.867981-.0849152-3.3307495,5.7746582.0045776-.2311707-3.7081299-5.0192261-.487854-.0001373-3.1529541,8.9173584.5253906.5271759-4.1894226-13.641037-.5323181-1.0490265,19.4140625,13.1192627.5245361-.0027008-4.1991577ZM194.2421265,302.4562988l-2.3510437-9.9811707-4.4698792-.5091248,5.3186035,20.37854,3.8734283-.4343872,3.4015198-12.078064c.7433167.0601501.8248138.7706909,1.0636292,1.2907715.7401733,1.611908,3.2269287,10.9047546,3.7254791,11.2225952l3.6301422-.1563721,4.6873627-19.6984863c-1.0778809.1116028-2.3958588-.2068176-3.4149323-.0090942-2.3585205.4575806-1.7514343,8.1040039-3.6674957,9.9702454-1.6816101-2.2313843-1.9718781-9.975769-4.8283386-10.3835754-.4798889-.068512-2.9223785.3290405-3.1899414.5257874-.3822021.2810364-2.3378296,7.8081665-2.7232361,9.0887146-.2254944.7492371.3277435.9257812-1.0552826.7736206h-.0000153ZM92.4914856,301.3805847c.1133499.1716003,2.657547.8619385,3.6810684,1.8349609,1.2232819,1.1629333,1.4776688,2.9082642,2.8595428,3.9493408,1.7896271-3.1765442,3.1221313-5.4049377,6.5463028-7.0708618-.9797211-1.4125671-2.6915588-1.359375-3.9377594-2.3466187-1.1231842-.889801-2.0791321-3.9356689-3.1268311-3.6844482-.7412262.1777344-1.5034332,3.0895996-2.3925247,3.9071045-.8260803.7595825-4.7994766,1.6398621-3.6298065,3.410553l.0000076-.0000305ZM302.2394104,294.1195068l-1.4594727-.0032043c-.295929,1.3539734-1.0687866,2.4962769-2.1369324,3.3720398-1.4946899,1.2254944-4.664917,1.3663025-3.3771667,3.4302673,3.1940918.4698792,4.9987793,3.2301941,5.4645386,6.2555237,2.6276855-2.0487671,3.0083313-5.4794617,6.8414307-6.0542297l-.1155701-1.7364807c-2.8671875-.5193787-4.5318298-2.5559692-5.2168274-5.263916ZM273.9319458,302.9345398c0-1.4041138-1.1382751-2.5423889-2.5423889-2.5423889s-2.5423889,1.1382751-2.5423889,2.5423889,1.1382751,2.5423889,2.5423889,2.5423889,2.5423889-1.1382751,2.5423889-2.5423889ZM148.7431183,324.3395081c-.548584-.4433899-2.0366669-4.37854-3.2782745-3.522522-.9626312,3.4029541-2.4253845,4.1289368-5.7739563,4.7284546-.547348,1.9468384,2.147049,2.6947327,2.5329742,4.0426025.421936,1.4736023-.6511078,2.8741455-.4378357,4.3370667,3.3453217-1.4541016,5.0427551-1.0817871,8.3875275.0004272.1747284-1.5095825-.3158112-3.4542847.1086731-4.8750305.3549957-1.1882019,2.3634338-1.6541443,1.9871063-3.2333374-.2684937-.965332-2.6546783-.7731934-3.5262299-1.4776306l.0000153-.0000305ZM258.7568359,333.9256897c-.5343018-3.6111755.3485107-5.2179871,2.1010742-8.1146851-.815979-1.0849915-2.3032227-.7236938-3.355835-1.3792419-1.1061707-.6889038-2.0461884-3.8927002-3.1947021-3.616272-1.0701294.9037781-1.3930969,2.9868164-2.5928345,3.7068176-1.1869049.7122803-2.5669098.1547241-3.4448853,1.285614,1.1635132,3.2120972,4.0210114,3.7958069,2.0987396,8.1162415,3.7765656-1.3313293,4.6368103-1.4606323,8.388443.0015259ZM197.3863373,328.944458v29.8997498c0,1.3650818,4.2903595,2.6829529,4.75354-2.0657349.8563995-8.7800598-.931076-18.4479675-.5717621-27.2945557-.5213165-2.7014465-3.7956238-1.7972107-4.1817627-.5394592h-.0000153ZM175.3457184,329.2098083c-1.041214-.717865-2.4935303,2.9291382-3.4650726,3.6029968-.8482819.5883789-2.3226471.8565063-3.3446503,1.1218567,1.2186127,3.3423157,3.5650635,4.2122498,2.1006927,8.3833008,1.558197.2394409,2.5845795-1.3688354,4.0197296-1.4404297,1.3658447-.0681458,2.4403687,1.5463562,3.8430786,1.4404907-.5428772-3.7338867.4321442-5.3875427,2.622879-8.1201477-2.8685913-1.1173706-4.8895721-1.5839539-5.7766418-4.9880981l-.0000153.0000305ZM231.4795532,333.9359131c-3.7735748-.1296997-4.0727386-2.9137573-6.5486145-4.7349548-1.5804901,3.1437683-2.2423859,4.3851929-6.0356903,4.7323608.0259857,1.610321,1.9290924,2.1461182,2.3868561,3.6379395.4747162,1.5470886.1621857,3.1760254.2366333,4.7467957,1.3085785-.0196228,2.1169281-1.3755493,3.4972229-1.439209,1.3781891-.0635681,2.7462311,1.7943726,4.3655853,1.439209.2638397-1.3137512-.467514-2.8776245-.173172-4.0977478.4536285-1.8804016,2.5904999-2.3034973,2.2711945-4.2843628l-.0000153-.0000305Z"></path>
    <path d="M130.7800598,301.3921814l.5177917-4.1869812c7.5474701.6837463,6.8712769,6.1209106-.5177917,4.1869812Z"></path>
    <path d="M132.3498383,294.0527039c-1.6353302-6.5761108,7.242981-2.7001343,4.7147827-.244873-1.2672424,1.2306824-3.1462708.0743713-4.7147827.244873Z"></path>
    <path d="M151.747345,298.2596436l.5313263-4.7232361c7.4631042.1549377,6.9370728,5.8297119-.5313263,4.7232361Z"></path>
    <path d="M258.6080627,302.8208923c-5.1666718,4.1541443-9.9172516-7.8709717-5.0878601-10.0597839,5.7954102-2.6266479,8.0776367,7.6559448,5.0878601,10.0597839Z"></path>
  </g>
  <g>
    <path d="M369.7032471,144.5626831h-28.0637817v-66.3564453c-3.8411255-2.7969971-8.5991211-4.8943481-12.9257812-7.0073242-42.8220215-20.9125977-86.3572998-40.4872437-129.2694702-61.1989136L58.8972778,77.6755981c-1.4987793,2.2470703-.4832764,4.5464478-.4901733,6.8018799-.0596924,19.4259644-.036377,38.8499756-.0016479,58.276001l-.8135376,1.8092041h-27.2769165l-.7868652.7868652v7.8683472c1.7332153.9247437,5.3947144,1.2145996,7.5844727,1.3330078,33.7808838,1.8270264,67.9873047,1.9384155,101.7639771,3.1473389,9.0484009.3238525,18.284668.032959,27.3202515.4813232,10.8182373.5368042,22.9956055,2.7890015,33.5499878,2.6879883,9.5632324-.0915527,20.5748291-2.1481323,30.40271-2.6879883,29.4943237-1.6201782,59.168396-1.6921387,88.6663818-2.6065063l50.3631592-1.5679932,1.3110352-.7871704v-7.8683472l-.7868652-.7868652ZM244.6864014,130.2272949c-6.4329224,11.2151489-18.3591309,20.9772949-31.0387573,23.7720947,2.7421875-6.4630737,8.7574463-8.0932007,13.6446533-12.3154907,1.979187-1.7098999,3.5422974-4.0864868,5.2932129-5.7225342,2.6921997-2.5155029,7.7167969-5.7800293,9.6254883-8.7340088,2.4511719-3.793396,3.31427-12.1148682,4.9730835-16.5331421-.0700073-1.1710205-3.3447876-4.0401001-3.9152222-5.9816284-.6446533-2.1939087-.6820068-4.9760742-1.442627-7.4747925-.8135376-2.6723633-3.6171875-8.1463013-3.9640503-10.2451782-.423584-2.5637207,1.7052002-8.9487915.6912231-11.1400146-5.6114502-6.6195679-11.72229-13.1592407-20.3465576-15.6828003l-7.7039185,8.0665283c3.5897217,5.3703003,8.5985718,10.3768311,12.0725708,15.7321777.3666992.5653687.5372925,1.1710815.5199585,1.8406982.8737183.164856.5065308-1.2972412,1.2636719-1.4424438,1.046875-.2007446,12.6583252,2.2208862,13.1779175,2.9971313.2200317,6.2601929,1.1289062,16.3855591-2.4691772,21.7046509-1.8679199,2.7614136-7.8700562,7.7754517-9.0673828,10.3433838-1.8001709,3.8608398-1.4552612,10.2124634-4.0446777,14.3126221-1.75,2.7709351-12.3516846,10.505249-15.5085449,11.239502-1.421814.3306885-2.6211548.5807495-3.0231934-.9257812-1.8659668,2.5151978-17.9556274,3.9847412-18.6070557,4.7428589l.7702637,5.7446899c-2.4337769-1.4324341-5.2439575-2.0371094-7.7972412-3.2184448-52.0838623-24.0980225-31.8491211-103.7359009,27.1939697-99.0582886,37.1792603,2.9454956,57.9451294,46.1740723,39.7023926,77.9782104ZM331.6729126,143.7758789c-.8032227,1.6931152-4.7210083,1.5205078-4.7210083,0v-55.6030273c-.060791-.3618164-.5691528-1.0753174-.9067993-1.3342896l-126.2982788-59.7380981-126.680481,61.0723877v55.6030273c0,1.0376587-3.2908325,2.4174194-4.6049194-.116333-1.4674683-2.8295288-.1391602-5.1005249-.0946655-7.7302856.2844238-16.791687-.2318726-33.6142578-.0515747-50.4093628l.5476074-1.5506592L198.8312378,21.3776245l1.7068481.1409912c40.5080566,19.9260864,81.9429932,38.0698242,122.4054565,58.0731812,2.9342041,1.4505615,6.2822266,2.8113403,8.7293701,4.9091187v59.2749634Z"></path>
    <g>
      <path d="M195.9082336,99.8399353c6.7516785.0224838,13.713028,1.5798035,20.3422241.1380005l6.2538757,19.0926819,1.6318054.8326416c-2.1003571-.4253922-2.6357117,1.1011353-4.0185699,2.0164948-5.0774384,3.3609772-10.2805634,6.524704-15.3804932,9.8527985-.9972534.2694244-4.3169403-2.2552338-5.4260712-3.0352783-1.3745422-.9667053-10.6034088-7.9950867-10.7736664-8.6650848l6.7559967-21.1433868.6148987.9111328Z"></path>
      <path d="M209.4511566,67.977417v.524559h-12.8516388c-.4105988,0-1.6706238,1.1850433-2.0684662,1.6034317-1.8678131,1.9641953-6.6833344,9.6304779-8.1903534,12.2807159-.3296356.5797043-.5491486,1.1803818-.501297,1.8585892-2.7063446-.990303-6.1880493-.2618256-9.1060791.0609436-2.0082092.2221298-7.529129.8010025-9.0631104,1.4085312-.6022339.2385101-.8048096.4815521-.7152863,1.1427155l-.5122223.0020599-3.5726624-12.7784729c5.8376617-6.7370758,12.2754974-12.5519142,21.0268097-14.9472847l11.1289978,8.8442116h14.4253082Z"></path>
      <path d="M161.1999512,102.6011581l13.4073181,18.8462524-5.8063202,15.7589493c-.7470398.0343933-10.9786682-7.986496-11.7279358-9.2447357-1.3344727-2.2409668-4.4099426-13.1108627-4.7006683-15.8127823-.402359-3.7394104,7.8198853-6.0808716,8.8275909-9.5476913l.0000153.0000076Z"></path>
    </g>
  </g>
</svg>
