<?xml version="1.0" encoding="UTF-8"?>
<svg xmlns="http://www.w3.org/2000/svg" id="Ebene_1" version="1.1" viewBox="0 0 400 400">
  <path d="M90.1065449,365.4793588c5.6079121.9308051,7.1091422,7.0351674,3.1814926,10.9762489,3.6227199,1.0225033,3.6612587,6.2481227,1.4125299,8.6557693-.5084176.5443476-4.1226184,2.3466728-4.5940225,2.3466728h-13.0136986v-21.978691c3.9653021.4617694,9.232386-.6276249,13.0136986,0ZM89.2416371,370.6849124l-6.3677239-.0031285.0343594,3.4427683c3.1380902.5146154,7.1755183,1.0936266,6.3333645-3.4396398ZM89.8214669,378.7820765c-2.3320471.3415151-4.4267582-1.139828-6.606809-.061119l-.3403706,3.5343796,6.40153-.2548976.5456496-3.218363Z"></path>
  <path d="M201.7351598,365.4793588c8.3223856,1.3803247,12.134625,13.0367618,5.8732635,18.8856788-.9489315.886424-5.3480938,3.0930122-6.4516501,3.0930122h-11.2785388v-21.978691c3.6210203.4202827,8.4040378-.5726851,11.8569254,0ZM196.2404871,382.2525704c11.1668266,1.2792934,10.8739434-13.5244031,0-10.9893455v10.9893455Z"></path>
  <path d="M301.9357461,376.3353681c0,6.3475448-5.1457018,11.4932466-11.4932466,11.4932466s-11.4932466-5.1457018-11.4932466-11.4932466,5.1457018-11.4932466,11.4932466-11.4932466,11.4932466,5.1457018,11.4932466,11.4932466ZM295.9786765,376.5067176c0-3.0631597-2.4831816-5.5463413-5.5463413-5.5463413s-5.5463413,2.4831816-5.5463413,5.5463413,2.4831816,5.5463413,5.5463413,5.5463413,5.5463413-2.4831816,5.5463413-5.5463413Z"></path>
  <path d="M114.6879756,365.4793588v11.8569254c0,2.9193367,3.5285666,6.0625333,6.5863114,4.2711741.5770608-.3380672,2.0894877-2.0748643,2.0894877-2.5360143v-13.5920852h5.7838661v15.3272451c0,3.8380151-6.7401263,7.1089258-10.1217683,7.1082533-4.056836-.0008067-10.1217629-3.9583053-10.1217629-8.2650265v-14.1704718h5.7838661Z"></path>
  <path d="M267.9607148,370.0957799l-4.3253363,2.9056365c-1.2979894-.4434092-2.1913816-1.3289778-3.6132942-1.6016057-12.0395349-2.3083789-6.9683327,17.0509162,3.4951412,8.6309263l4.4434556,3.9462053c-5.7164112,4.6452482-15.2965985,5.3812309-19.5711866-1.529346-7.8088051-12.6242217,11.1659225-24.39106,19.5712204-12.3518164Z"></path>
  <polygon points="167.8995434 365.4793588 167.8995434 381.6741838 177.7321157 381.6741838 177.7321157 387.4580498 162.1156773 387.4580498 162.1156773 365.4793588 167.8995434 365.4793588"></polygon>
  <path d="M19.6697684,371.3900085c2.7306744-.6080075,18.8090171-.5617895,21.8159575-.0904677,4.2815316.6711072,4.2740732,6.1965883,0,6.8680074-3.4230855.5377364-17.3170814.532977-20.7512628.0020055-4.0548668-.626938-4.8654529-5.9332746-1.0646947-6.7795452Z"></path>
  <path d="M381.1868017,371.9788499c2.2239184,2.2317062.2918112,5.7322217-2.4989799,6.1914125-3.0958632.5093867-16.4719434.4944593-19.5987928.0008977-4.0643576-.6415438-5.5584475-5.400724-1.1746479-6.8930907,3.617435.5069652,21.5578395-1.0198047,23.2724206.7007805Z"></path>
  <rect x="143.0289193" y="365.4793588" width="5.7838661" height="21.978691"></rect>
  <circle cx="318.9927989" cy="383.9461093" r="3.7813529"></circle>
  <path d="M201.4459665,240.547852h-20.8219178v-111.0502283l-7.9663131,4.182233-.7001432,3.6371162c-.4662549,34.0083618.4396562,68.0543826.330834,102.050003-.0021613.6751792-.0384179.7483123-.6293701,1.1808761h-22.8462709v-94.8554033l10.9892419,5.7780356c.2835832-.2128991-.578283-.7368892-.578283-.8617495v-33.5464231l42.2222222-23.4246575v146.9101979Z"></path>
  <path d="M139.5585997,240.547852h-20.8219178l-.8734033-61.8931502c-1.7386311,1.4107106-7.4418812,2.9946132-7.8047847,4.9196806l.0023889,56.9734695h-26.0273973v-27.7625571l11.5906618-5.5930746.2574906-42.4217867,43.3917226-23.1126434c1.4319949.8983061.2852391,1.2100937.2852391,1.4319187v97.4581431ZM100.5840443,227.1067602c0-2.1073278-1.7083267-3.8156545-3.8156545-3.8156545s-3.8156545,1.7083267-3.8156545,3.8156545,1.7083267,3.8156545,3.8156545,3.8156545,3.8156545-1.7083267,3.8156545-3.8156545Z"></path>
  <path d="M243.6681887,161.308887l27.1841705-13.3028919v92.5418569h-34.1248097c.4649157-.5598447,0-1.0917415,0-1.4459665v-121.7503805l6.9406393,4.3378995v39.6194825ZM257.2164855,206.6127291c0-2.6397083-2.1399064-4.7796148-4.7796148-4.7796148s-4.7796148,2.1399064-4.7796148,4.7796148,2.1399064,4.7796148,4.7796148,4.7796148,4.7796148-2.1399064,4.7796148-4.7796148Z"></path>
  <path d="M210.7001522,240.547852V100.5782934c1.1013656-.0197021,2.1532101.7158852,3.0742748,1.2637023,2.5791474,1.5339868,11.3199643,7.1344947,13.0915495,8.8870641.5292649.5235838,1.1785458.8071814,1.1752341,1.7166989-1.2067888,40.5976049,1.6350973,82.1451486.0420544,122.6326114-.0631982,1.6061944-.1522868,4.3247461-.8990945,5.4694819h-16.4840183Z"></path>
  <path d="M208.762827,48.1472491c9.7383042,9.6459199,12.8650443,22.189339,10.616272,35.6550401,4.7900768-1.3699585,7.1085087-5.7711684,8.1005256-10.4075246,1.4659967.3163629.6860063,1.6833053,1.0182733,2.7124941,1.7013174,5.2697885,3.471995,9.2570275,1.6200677,15.8590657-.4106094,1.4638043-2.4522048.7428771-.9145435,3.9832114l-3.4649336.0054628-.2820306,1.7268385-3.7528182-2.3449719.5667237-1.1169867c-1.9538265,1.142641-5.6763389-2.6069952-5.7872184-4.3679065l1.1658597-.5413735c-.5107153-1.9170807-1.4372283-.9064007-2.0271533-1.4172195-1.0517204-.9106895-2.226553-2.9214429-2.7832431-3.3320188-1.9553156-1.4421047-6.1297386-2.4537003-7.9549785-5.0393665-.8442132-1.1959268-.4344256-2.8617866-.9747043-4.2582297-.8615643-2.2268605-1.4260549.2677537-1.9174174.6736965-5.356671,4.4254539-12.2763995,7.3295705-15.8435958,13.119686-.3630701.5893194.3686071,1.2800958-.5607064,2.2640308-2.3458019,2.4836795-9.003532,4.5846371-11.8975767,6.942965-2.8883371-11.9343441-.7969597-25.2796197,8.0835697-34.1188712l.2585723,1.1067496,1.4800564-.5324415c-.0500374,1.9663441-.0591818,4.2671375,1.4464339,5.7694456,10.9630517-5.6745611,17.3964039-15.990515,12.4476715-28.3187819,1.3161671.1955464,1.5278243-.088986,2.0106364-1.1652431,2.9020634,2.4229339,6.6728836,4.4942367,9.3462575,7.1422492Z"></path>
  <polygon points="295.1445967 240.547852 280.6849315 240.547852 280.6849315 165.9359798 295.1445967 175.4793588 295.1445967 240.547852"></polygon>
  <polygon points="314.2313546 213.3636815 314.2313546 240.547852 304.9771689 240.547852 304.9771689 207.5798154 314.2313546 213.3636815"></polygon>
  <path d="M211.2785388,12.0851427c31.5005944,3.0472105,62.0609557,15.2325029,86.4545665,35.2958141,55.9616419,46.0274555,77.1404821,129.0793131,38.7661337,193.1668952h-13.0136986v-18.2191781c0-5.1218986,2.9236718-10.1311461,4.4561935-15.2089511,8.5436508-28.3082399,8.2366495-54.9146522-1.9858307-82.6952016-17.937985-48.7481579-62.6752705-85.2180543-114.6773643-90.9390741V12.0851427Z"></path>
  <path d="M186.9863014,12.0851427v21.4003044c-38.9182252,4.6905609-74.1078394,25.5890284-96.7184805,57.4215499-26.9484243,37.9394947-33.953659,86.7885643-14.462638,129.8221516l-.4474964,19.8187033h-13.8812785c-8.8972714-16.4435182-15.465642-34.3175476-17.8556136-52.9967456C32.4909061,100.5637189,100.4517791,19.5649217,186.9863014,12.0851427Z"></path>
  <path d="M333.6073059,256.1642903l28.9255488,39.9124133c1.3198886.2225989.7867111-.5795507.8615725-1.4404497.8574133-9.860168.379777-24.046848.0242458-34.158389-.0517341-1.4713521-.7058584-2.829537-.6028436-4.3135746h27.1841705v89.6499239c-7.9960278-1.8181543-16.2050925,1.0115861-24.033197-.548243l-31.4919172-41.6739793v41.3546423c0,.2880622-.9543118.9522415-1.4394904.8861627l-25.7446801-.5969694v-89.0715373h26.3165906Z"></path>
  <path d="M302.6619058,345.8112009l-28.8565341-.6397725-6.2271236-15.4590544-35.963931.0019096-5.970709,15.4242038-28.819539.6751352,35.8437192-89.3711939,35.0079639.2957288,34.9861535,89.0730434ZM241.065449,307.6406982h16.7732116c.1096055,0,2.0507131-.7193156,2.0167219-.8591737l-10.1141612-26.3308767-9.4590832,25.8483541.7833109,1.3416963Z"></path>
  <path d="M88.6605784,256.1642903v23.7138508l-24.63871-.5513531c-.482023-.1321505-1.3886872.5932991-1.3886872.8405464v65.6468798l-27.1841705-.5783866v-65.9360731c-.423529-.1539365-.6914409.5783866-.8675799.5783866H10v-23.7138508h78.6605784Z"></path>
  <path d="M207.2298326,256.1642903v22.8462709l-.8675799.8675799h-17.9299848c-.1761371,0-.4440298-.7323066-.8675799-.5783866v66.5144597h-26.6057839v-65.9360731h-16.7732116l-.5783866-23.7138508h63.6225266Z"></path>
  <rect x="103.0926528" y="256.1642903" width="27.2117612" height="89.6499239"></rect>
</svg>
